<?xml version="1.0" encoding="UTF-8"?>
<svg width="420" height="240" viewBox="0 0 420 240" fill="none" xmlns="http://www.w3.org/2000/svg" role="img" aria-label="Abstract merchant tools dashboard illustration">
  <defs>
    <linearGradient id="g1" x1="0" y1="0" x2="1" y2="1">
      <stop offset="0%" stop-color="#c792ea"/>
      <stop offset="100%" stop-color="#82aaff"/>
    </linearGradient>
    <linearGradient id="g2" x1="0" y1="0" x2="1" y2="1">
      <stop offset="0%" stop-color="#0f141a"/>
      <stop offset="100%" stop-color="#151a22"/>
    </linearGradient>
  </defs>
  <!-- Frame -->
  <rect x="8" y="8" width="404" height="224" rx="14" fill="url(#g2)" stroke="#2c323b"/>
  <!-- Header bar -->
  <rect x="20" y="20" width="380" height="20" rx="6" fill="#1a2028" stroke="#2c323b"/>
  <circle cx="32" cy="30" r="4" fill="#ef4444"/>
  <circle cx="46" cy="30" r="4" fill="#f59e0b"/>
  <circle cx="60" cy="30" r="4" fill="#10b981"/>
  <!-- Left nav cards -->
  <rect x="20" y="50" width="110" height="38" rx="8" fill="#131922" stroke="#2c323b"/>
  <rect x="20" y="94" width="110" height="38" rx="8" fill="#131922" stroke="#2c323b"/>
  <rect x="20" y="138" width="110" height="38" rx="8" fill="#131922" stroke="#2c323b"/>
  <rect x="20" y="182" width="110" height="38" rx="8" fill="#131922" stroke="#2c323b"/>
  <!-- Main panels -->
  <rect x="140" y="50" width="260" height="80" rx="10" fill="#0f141a" stroke="#2c323b"/>
  <rect x="140" y="136" width="260" height="84" rx="10" fill="#0f141a" stroke="#2c323b"/>
  <!-- Chart lines -->
  <path d="M156 110 C 176 90, 196 120, 216 102 S 256 96, 276 88 S 316 102, 336 86" stroke="url(#g1)" stroke-width="2" fill="none"/>
  <rect x="156" y="68" width="72" height="12" rx="6" fill="#1e2631"/>
  <rect x="232" y="68" width="56" height="12" rx="6" fill="#1e2631"/>
  <rect x="292" y="68" width="84" height="12" rx="6" fill="#1e2631"/>
  <!-- KPI pills -->
  <rect x="156" y="156" width="88" height="20" rx="10" fill="url(#g1)" opacity="0.9"/>
  <rect x="248" y="156" width="72" height="20" rx="10" fill="url(#g1)" opacity="0.75"/>
  <rect x="324" y="156" width="64" height="20" rx="10" fill="url(#g1)" opacity="0.6"/>
  <!-- Table rows -->
  <rect x="156" y="182" width="232" height="10" rx="5" fill="#1b2230"/>
  <rect x="156" y="198" width="200" height="10" rx="5" fill="#1b2230"/>
  <rect x="156" y="214" width="168" height="10" rx="5" fill="#1b2230"/>
</svg>
